<svg width="301" height="303" viewBox="0 0 301 303" fill="none" xmlns="http://www.w3.org/2000/svg">
<g filter="url(#filter0_d_380_209)">
<path d="M0 0V291H291V0H0ZM62.274 85.1175C79.443 85.1175 100.613 99.1582 102.141 122.366C102.141 122.366 104.833 168.562 104.906 172.199C106.361 168.344 124.33 121.929 124.33 121.929C131.459 103.014 144.845 85.1175 170.017 85.1175C170.017 85.1175 180.784 168.271 181.22 172.126C182.311 168.198 197.08 121.929 197.08 121.929C204.136 102.941 217.886 85.1175 244.004 85.1175L206.974 176.128C199.335 194.388 185.076 211.048 158.668 211.048C158.668 211.048 147.464 133.133 147.319 131.387C146.664 133.205 130.877 174.163 130.877 174.163C123.457 193.151 109.271 210.975 82.935 211.048L62.274 85.1175Z" fill="#101010"/>
<path d="M62.274 85.1175C79.443 85.1175 100.613 99.1582 102.141 122.366C102.141 122.366 104.833 168.562 104.906 172.199C106.361 168.344 124.33 121.929 124.33 121.929C131.459 103.014 144.845 85.1175 170.017 85.1175C170.017 85.1175 180.784 168.271 181.22 172.126C182.311 168.198 197.08 121.929 197.08 121.929C204.136 102.941 217.886 85.1175 244.004 85.1175L206.974 176.128C199.335 194.388 185.076 211.048 158.668 211.048C158.668 211.048 147.464 133.133 147.319 131.387C146.664 133.205 130.877 174.163 130.877 174.163C123.457 193.151 109.271 210.975 82.935 211.048L62.274 85.1175Z" fill="#101010"/>
<path d="M62.274 85.1175C79.443 85.1175 100.613 99.1582 102.141 122.366C102.141 122.366 104.833 168.562 104.906 172.199C106.361 168.344 124.33 121.929 124.33 121.929C131.459 103.014 144.845 85.1175 170.017 85.1175C170.017 85.1175 180.784 168.271 181.22 172.126C182.311 168.198 197.08 121.929 197.08 121.929C204.136 102.941 217.886 85.1175 244.004 85.1175L206.974 176.128C199.335 194.388 185.076 211.048 158.668 211.048C158.668 211.048 147.464 133.133 147.319 131.387C146.664 133.205 130.877 174.163 130.877 174.163C123.457 193.151 109.271 210.975 82.935 211.048L62.274 85.1175Z" fill="#4F82EE"/>
</g>
<defs>
<filter id="filter0_d_380_209" x="0" y="0" width="301" height="303" filterUnits="userSpaceOnUse" color-interpolation-filters="sRGB">
<feFlood flood-opacity="0" result="BackgroundImageFix"/>
<feColorMatrix in="SourceAlpha" type="matrix" values="0 0 0 0 0 0 0 0 0 0 0 0 0 0 0 0 0 0 127 0" result="hardAlpha"/>
<feOffset dx="8" dy="10"/>
<feGaussianBlur stdDeviation="1"/>
<feComposite in2="hardAlpha" operator="out"/>
<feColorMatrix type="matrix" values="0 0 0 0 0.85098 0 0 0 0 0.85098 0 0 0 0 0.85098 0 0 0 1 0"/>
<feBlend mode="normal" in2="BackgroundImageFix" result="effect1_dropShadow_380_209"/>
<feBlend mode="normal" in="SourceGraphic" in2="effect1_dropShadow_380_209" result="shape"/>
</filter>
</defs>
</svg>
