<svg width="282" height="337" viewBox="0 0 282 337" fill="none" xmlns="http://www.w3.org/2000/svg">
<path d="M0 10C0 4.47715 4.47715 0 10 0H272C277.523 0 282 4.47715 282 10V327C282 332.523 277.523 337 272 337H10C4.47716 337 0 332.523 0 327V10Z" fill="#1E1E1E"/>
<path d="M25 72.5C25 69.4624 27.4624 67 30.5 67H117.5C120.538 67 123 69.4624 123 72.5C123 75.5376 120.538 78 117.5 78H30.5C27.4624 78 25 75.5376 25 72.5Z" fill="#4F82EE"/>
<path d="M25 89.5C25 86.4624 27.4624 84 30.5 84H117.5C120.538 84 123 86.4624 123 89.5C123 92.5376 120.538 95 117.5 95H30.5C27.4624 95 25 92.5376 25 89.5Z" fill="#4F82EE"/>
<path d="M25 107.5C25 104.462 27.4624 102 30.5 102H117.5C120.538 102 123 104.462 123 107.5C123 110.538 120.538 113 117.5 113H30.5C27.4624 113 25 110.538 25 107.5Z" fill="#4F82EE"/>
<path d="M25 125.5C25 122.462 27.4624 120 30.5 120H62.5C65.5376 120 68 122.462 68 125.5C68 128.538 65.5376 131 62.5 131H30.5C27.4624 131 25 128.538 25 125.5Z" fill="#D9D9D9"/>
<path d="M155 199.5C155 196.462 157.462 194 160.5 194H247.5C250.538 194 253 196.462 253 199.5C253 202.538 250.538 205 247.5 205H160.5C157.462 205 155 202.538 155 199.5Z" fill="#4F82EE"/>
<path d="M155 217.5C155 214.462 157.462 212 160.5 212H247.5C250.538 212 253 214.462 253 217.5C253 220.538 250.538 223 247.5 223H160.5C157.462 223 155 220.538 155 217.5Z" fill="#4F82EE"/>
<path d="M155 235C155 231.686 157.686 229 161 229H247C250.314 229 253 231.686 253 235C253 238.314 250.314 241 247 241H161C157.686 241 155 238.314 155 235Z" fill="#4F82EE"/>
<path d="M210 252.5C210 249.462 212.462 247 215.5 247H247.5C250.538 247 253 249.462 253 252.5C253 255.538 250.538 258 247.5 258H215.5C212.462 258 210 255.538 210 252.5Z" fill="#D9D9D9"/>
<path d="M25 36.5C25 29.5964 30.5964 24 37.5 24H245.5C252.404 24 258 29.5964 258 36.5C258 43.4036 252.404 49 245.5 49H37.5C30.5964 49 25 43.4036 25 36.5Z" fill="#D9D9D9"/>
<path d="M142 72C142 69.2386 144.239 67 147 67H248C250.761 67 253 69.2386 253 72V140C253 142.761 250.761 145 248 145H147C144.239 145 142 142.761 142 140V72Z" fill="#D9D9D9"/>
<path d="M25 195C25 192.239 27.2386 190 30 190H131C133.761 190 136 192.239 136 195V263C136 265.761 133.761 268 131 268H30C27.2386 268 25 265.761 25 263V195Z" fill="#D9D9D9"/>
</svg>
