<svg width="299" height="297" viewBox="0 0 299 297" fill="none" xmlns="http://www.w3.org/2000/svg">
<g filter="url(#filter0_d_380_208)">
<path d="M153.5 0C73.1416 0 8 65.1416 8 145.5C8 225.858 73.1416 291 153.5 291C233.858 291 299 225.858 299 145.5C299 65.1416 233.858 0 153.5 0ZM166.064 224.387V244.879H146.462V224.617C114.297 220.212 100.211 193.783 100.211 193.783L120.233 177.035C120.233 177.035 133.017 199.289 156.143 199.289C168.917 199.289 178.608 192.452 178.608 180.769C178.608 153.459 105.027 156.772 105.027 106.107C105.027 84.0825 122.446 68.215 146.452 64.4609V43.9884H166.054V64.4609C182.792 66.6633 202.614 75.473 202.614 94.4238V108.96H176.625V101.912C176.625 94.6441 167.365 89.7987 157.004 89.7987C143.789 89.7987 134.109 96.406 134.109 105.656C134.109 133.627 207.69 126.799 207.69 179.888C207.69 201.712 191.392 220.633 166.064 224.387Z" fill="#101010"/>
<path d="M166.064 224.387V244.879H146.462V224.617C114.297 220.212 100.211 193.783 100.211 193.783L120.233 177.035C120.233 177.035 133.017 199.289 156.143 199.289C168.917 199.289 178.608 192.452 178.608 180.769C178.608 153.459 105.027 156.772 105.027 106.107C105.027 84.0825 122.446 68.215 146.452 64.4609V43.9884H166.054V64.4609C182.792 66.6633 202.614 75.473 202.614 94.4238V108.96H176.625V101.912C176.625 94.6441 167.365 89.7987 157.004 89.7987C143.789 89.7987 134.109 96.406 134.109 105.656C134.109 133.627 207.69 126.799 207.69 179.888C207.69 201.712 191.392 220.633 166.064 224.387Z" fill="#101010"/>
<path d="M166.064 224.387V244.879H146.462V224.617C114.297 220.212 100.211 193.783 100.211 193.783L120.233 177.035C120.233 177.035 133.017 199.289 156.143 199.289C168.917 199.289 178.608 192.452 178.608 180.769C178.608 153.459 105.027 156.772 105.027 106.107C105.027 84.0825 122.446 68.215 146.452 64.4609V43.9884H166.054V64.4609C182.792 66.6633 202.614 75.473 202.614 94.4238V108.96H176.625V101.912C176.625 94.6441 167.365 89.7987 157.004 89.7987C143.789 89.7987 134.109 96.406 134.109 105.656C134.109 133.627 207.69 126.799 207.69 179.888C207.69 201.712 191.392 220.633 166.064 224.387Z" fill="#4F82EE"/>
</g>
<defs>
<filter id="filter0_d_380_208" x="0" y="0" width="299" height="297" filterUnits="userSpaceOnUse" color-interpolation-filters="sRGB">
<feFlood flood-opacity="0" result="BackgroundImageFix"/>
<feColorMatrix in="SourceAlpha" type="matrix" values="0 0 0 0 0 0 0 0 0 0 0 0 0 0 0 0 0 0 127 0" result="hardAlpha"/>
<feOffset dx="-6" dy="4"/>
<feGaussianBlur stdDeviation="1"/>
<feComposite in2="hardAlpha" operator="out"/>
<feColorMatrix type="matrix" values="0 0 0 0 0.85098 0 0 0 0 0.85098 0 0 0 0 0.85098 0 0 0 1 0"/>
<feBlend mode="normal" in2="BackgroundImageFix" result="effect1_dropShadow_380_208"/>
<feBlend mode="normal" in="SourceGraphic" in2="effect1_dropShadow_380_208" result="shape"/>
</filter>
</defs>
</svg>
